<svg width="178" height="321" viewBox="0 0 178 321" fill="none" xmlns="http://www.w3.org/2000/svg">
<g opacity="0.3">
<path d="M178 183.683L89.5642 235.333L0.785156 183.683L89.5642 132.375L178 183.683Z" fill="url(#paint0_linear_107_3)" fill-opacity="0.5"/>
<path d="M178 167.265L89.5642 218.915L0.785156 167.265L89.5642 115.614L178 167.265Z" fill="url(#paint1_linear_107_3)" fill-opacity="0.5"/>
<path opacity="0.7" d="M178 167.265L89.564 0V218.915L178 167.265Z" fill="url(#paint2_linear_107_3)" fill-opacity="0.5"/>
<path opacity="0.7" d="M0.785156 167.265L89.5642 0V218.915L0.785156 167.265Z" fill="url(#paint3_linear_107_3)" fill-opacity="0.5"/>
<path opacity="0.7" d="M178 183.683L89.564 319.821V235.333L178 183.683Z" fill="url(#paint4_linear_107_3)" fill-opacity="0.5"/>
<path opacity="0.7" d="M0.785156 183.683L89.5642 319.821V235.333L0.785156 183.683Z" fill="url(#paint5_linear_107_3)" fill-opacity="0.5"/>
<path d="M178 184.709L89.5642 236.359L0.785156 184.709L89.5642 133.059L178 184.709Z" fill="url(#paint6_linear_107_3)" fill-opacity="0.5"/>
<path d="M178 167.949L89.5642 219.599L0.785156 167.949L89.5642 116.641L178 167.949Z" fill="url(#paint7_linear_107_3)" fill-opacity="0.5"/>
<path opacity="0.7" d="M178 167.949L89.564 1.02612V219.599L178 167.949Z" fill="url(#paint8_linear_107_3)" fill-opacity="0.5"/>
<path opacity="0.7" d="M0.785156 167.949L89.5642 1.02612V219.599L0.785156 167.949Z" fill="url(#paint9_linear_107_3)" fill-opacity="0.5"/>
<path opacity="0.7" d="M178 184.709L89.564 320.505V236.359L178 184.709Z" fill="url(#paint10_linear_107_3)" fill-opacity="0.5"/>
<path opacity="0.7" d="M0.785156 184.709L89.5642 320.505V236.359L0.785156 184.709Z" fill="url(#paint11_linear_107_3)" fill-opacity="0.5"/>
</g>
<defs>
<linearGradient id="paint0_linear_107_3" x1="89.489" y1="235.384" x2="89.489" y2="132.263" gradientUnits="userSpaceOnUse">
<stop stop-color="#4FA4FF"/>
<stop offset="1" stop-color="#1339E2"/>
</linearGradient>
<linearGradient id="paint1_linear_107_3" x1="89.489" y1="218.795" x2="89.489" y2="115.674" gradientUnits="userSpaceOnUse">
<stop stop-color="#4F81FF"/>
<stop offset="1" stop-color="#1339E2"/>
</linearGradient>
<linearGradient id="paint2_linear_107_3" x1="80.4389" y1="104.038" x2="192.27" y2="170.748" gradientUnits="userSpaceOnUse">
<stop stop-color="#4F24FF" stop-opacity="0.5"/>
<stop offset="1" stop-color="#00FFE2"/>
</linearGradient>
<linearGradient id="paint3_linear_107_3" x1="-9.90524" y1="206.261" x2="92.3262" y2="105.911" gradientUnits="userSpaceOnUse">
<stop stop-color="#4F24FF"/>
<stop offset="1" stop-color="#00FFE2"/>
</linearGradient>
<linearGradient id="paint4_linear_107_3" x1="71.8718" y1="291.731" x2="170.582" y2="211.577" gradientUnits="userSpaceOnUse">
<stop stop-color="#4F24FF"/>
<stop offset="1" stop-color="#00FFE2"/>
</linearGradient>
<linearGradient id="paint5_linear_107_3" x1="13.055" y1="281.058" x2="71.807" y2="227.045" gradientUnits="userSpaceOnUse">
<stop stop-color="#4F24FF"/>
<stop offset="1" stop-color="#00FFE2"/>
</linearGradient>
<linearGradient id="paint6_linear_107_3" x1="89.489" y1="236.256" x2="89.489" y2="133.135" gradientUnits="userSpaceOnUse">
<stop stop-color="#4FA4FF"/>
<stop offset="1" stop-color="#1339E2"/>
</linearGradient>
<linearGradient id="paint7_linear_107_3" x1="89.489" y1="219.667" x2="89.489" y2="116.546" gradientUnits="userSpaceOnUse">
<stop stop-color="#4F81FF"/>
<stop offset="1" stop-color="#1339E2"/>
</linearGradient>
<linearGradient id="paint8_linear_107_3" x1="80.4389" y1="104.91" x2="192.27" y2="171.62" gradientUnits="userSpaceOnUse">
<stop stop-color="#4F24FF"/>
<stop offset="1" stop-color="#00FFE2"/>
</linearGradient>
<linearGradient id="paint9_linear_107_3" x1="-9.90422" y1="207.133" x2="92.3262" y2="106.783" gradientUnits="userSpaceOnUse">
<stop stop-color="#4F24FF"/>
<stop offset="1" stop-color="#00FFE2"/>
</linearGradient>
<linearGradient id="paint10_linear_107_3" x1="71.8718" y1="292.603" x2="170.582" y2="212.449" gradientUnits="userSpaceOnUse">
<stop stop-color="#4F24FF"/>
<stop offset="1" stop-color="#00FFE2"/>
</linearGradient>
<linearGradient id="paint11_linear_107_3" x1="13.055" y1="281.93" x2="71.807" y2="227.917" gradientUnits="userSpaceOnUse">
<stop stop-color="#4F24FF" stop-opacity="0.5"/>
<stop offset="1" stop-color="#00FFE2"/>
</linearGradient>
</defs>
</svg>
